<?xml version="1.0" encoding="UTF-8" standalone="no"?>
<!-- Created with Inkscape (http://www.inkscape.org/) -->

<svg
   width="67.791351mm"
   height="210.8625mm"
   viewBox="0 0 67.791351 210.8625"
   version="1.1"
   id="svg13788"
   inkscape:version="1.2 (dc2aedaf03, 2022-05-15)"
   sodipodi:docname="luciole vinyle.svg"
   xmlns:inkscape="http://www.inkscape.org/namespaces/inkscape"
   xmlns:sodipodi="http://sodipodi.sourceforge.net/DTD/sodipodi-0.dtd"
   xmlns="http://www.w3.org/2000/svg"
   xmlns:svg="http://www.w3.org/2000/svg">
  <sodipodi:namedview
     id="namedview13790"
     pagecolor="#ffffff"
     bordercolor="#000000"
     borderopacity="0.25"
     inkscape:showpageshadow="2"
     inkscape:pageopacity="0.0"
     inkscape:pagecheckerboard="0"
     inkscape:deskcolor="#d1d1d1"
     inkscape:document-units="mm"
     showgrid="false"
     inkscape:zoom="0.70710678"
     inkscape:cx="50.204582"
     inkscape:cy="248.19448"
     inkscape:window-width="1920"
     inkscape:window-height="1001"
     inkscape:window-x="-9"
     inkscape:window-y="-9"
     inkscape:window-maximized="1"
     inkscape:current-layer="layer1" />
  <defs
     id="defs13785" />
  <g
     inkscape:label="Calque 1"
     inkscape:groupmode="layer"
     id="layer1"
     transform="translate(-67.901625,-39.710708)">
    <path
       id="path14522-7-7-0-8-2"
       style="fill:none;stroke:#000000;stroke-width:0.21;stroke-dasharray:none;stroke-opacity:1"
       d="m 83.875989,39.815855 c -0.052,9.53e-4 -0.10198,0.0077 -0.14986,0.02067 -1.53243,0.413714 -3.39337,0.620405 -4.9258,0.930693 -1.53242,0.310274 -0.65669,1.861988 0.65681,1.758549 1.3135,-0.103366 2.13443,-0.258629 3.5574,-0.05168 1.42296,0.206864 8.64714,9.101414 9.96062,11.687142 0.94446,1.859211 2.74616,6.086951 3.52129,8.392821 0.0912,0.27134 0.21215,0.40888 0.17624,0.6755 -0.0151,0.11193 -0.13653,0.36664 -0.2127,0.42356 -0.13366,0.0999 -0.35191,0.2626 -0.73382,0.14396 -0.18381,-0.0571 -0.18001,-0.0712 -0.40092,-0.14981 -0.46418,-0.16512 -1.02946,-0.30221 -1.70672,-0.28091 -1.10248,0.0347 -3.55011,0.67529 -4.6519,2.27583 -0.85455,1.24139 -1.24526,3.41303 -0.47904,5.06791 0.56214,1.21411 1.59545,2.42824 2.40857,3.07052 0.16871,0.13327 0.34034,0.21711 0.47151,0.36217 0.0824,0.0911 0.10274,0.19439 0.12439,0.28232 0.0358,0.14525 0.006,0.29088 -0.0491,0.44781 -0.0506,0.14551 -0.169,0.21696 -0.30549,0.35659 -0.66704,0.68239 -1.7161,1.56516 -2.40095,2.17476 -0.15675,0.13952 -0.22009,0.24956 -0.37099,0.34516 -0.0813,0.0515 -0.24442,0.0932 -0.3306,0.0972 -0.11694,-0.008 -0.17864,0.0237 -0.35051,-0.074 -0.18265,-0.10376 -0.32935,-0.2468 -0.57731,-0.48942 -2.33537,-2.28497 -7.59517,-9.36571 -7.59517,-9.36571 0,0 0.10919,-3.82685 -0.32867,-4.96456 -0.43783,-1.13772 -0.82082,-1.34469 -1.64176,-1.24127 -1.38945,0.17508 -0.82505,3.22012 -0.82062,4.49947 0.006,1.74877 0.40695,3.49593 1.69654,4.49895 1.31469,1.02251 7.88098,9.61911 7.66206,10.23968 -0.21891,0.62057 -7.43258,14.58337 -7.97987,16.34164 -0.54729,1.75829 -7.55613,4.55063 -7.55613,4.55063 0,0 -2.4232,4.31976 -2.53266,5.5609 -0.10948,1.24115 1.99269,1.88505 2.64945,0.64389 0.65675,-1.24112 1.52497,-3.61993 1.52497,-3.61993 l 2.82104,-1.59616 0.48079,-0.26643 0.177,-0.0546 c 0.31703,-0.0327 0.42988,0.0731 0.5912,0.18898 0,0 0.2219,0.25565 0.21451,0.50108 -0.006,0.21091 -0.10696,0.38469 -0.19347,0.61419 -1.96953,5.22463 -6.64924,18.52616 -5.95504,25.24963 0.46598,4.51307 3.23161,2.65196 5.71852,-0.0909 0.0245,-0.0325 0.0633,-0.0727 0.10302,-0.10753 l 0.0666,-0.059 c 0.0702,-0.0512 0.0451,-0.025 0.10353,-0.0671 l 0.0514,-0.0207 c 0.0748,-0.0266 0.15365,-0.0402 0.23306,-0.0403 0.38677,-1.2e-4 0.70034,0.31345 0.70022,0.70022 -2e-5,0.0124 -3.6e-4,0.0248 -0.001,0.0372 l -0.002,0.045 c -0.004,0.0379 -0.006,0.0431 -0.017,0.0853 -0.0175,0.0708 -0.0459,0.13846 -0.0842,0.2005 -2.41369,5.6864 -4.86562,13.50745 -1.30793,15.78199 2.56295,1.63857 6.94127,-1.31612 9.89166,-4.13823 0.3696,-0.35353 0.75478,-0.84549 1.04348,-1.012 0.11981,-0.0691 0.35802,-0.13328 0.61741,-0.0231 0.39218,0.24828 0.36105,0.33877 0.42877,0.73471 l -0.43347,0.99885 -4.72811,11.15824 c 0,0 1.95154,5.79173 2.82722,5.9986 0.87566,0.20684 2.73631,-0.20653 2.18901,-1.86139 -0.54729,-1.65488 -2.50162,-3.22921 -1.84485,-4.67723 0.42589,-0.93898 1.9037,-4.99991 2.97961,-7.4287 0.0827,-0.18674 0.16117,-0.36474 0.24038,-0.52912 0.0998,-0.20718 0.0896,-0.26718 0.23741,-0.38789 0.24291,-0.1983 0.52917,-0.21713 0.72736,-0.12975 0.10822,0.0477 0.21445,0.0912 0.32694,0.24339 0.0988,0.13366 0.13977,0.31924 0.2217,0.49803 1.50039,3.2738 5.67482,10.62541 11.395841,10.75608 5.18836,0.11845 8.21128,-2.86432 11.18028,-10.54722 0.0831,-0.21509 0.139,-0.48046 0.27821,-0.67288 0.13011,-0.17984 0.32523,-0.2684 0.46481,-0.27533 0.18543,-0.009 0.41241,0.0308 0.56613,0.16198 0.17873,0.15257 0.26035,0.40816 0.40186,0.66893 1.30156,2.39859 3.15527,7.04562 3.15527,7.04562 0.006,0.40521 -0.67714,3.36776 -1.94458,5.80326 -0.7743,1.48791 1.53886,2.08043 2.63343,0.73587 1.0946,-1.34459 2.25206,-5.00888 2.25206,-6.56032 0,-1.06121 -2.5964,-5.98354 -4.44736,-9.45163 -0.1649,-0.30897 -0.29902,-0.53713 -0.4132,-0.83591 -0.0256,-0.0669 -0.007,-0.40197 0.11637,-0.56549 0.19195,-0.25401 0.43679,-0.29057 0.59692,-0.28287 0.24061,0.0116 0.2246,0.0371 0.39884,0.123 0.20279,0.1 0.29368,0.26844 0.47995,0.41894 2.72136,2.19886 6.67219,4.95595 9.0242,3.64193 4.35772,-2.43457 0.52591,-12.15887 -1.98366,-17.89674 -0.17484,-0.39975 -0.27935,-0.54472 -0.38512,-0.92108 -0.0636,-0.22625 0.14157,-0.59117 0.29812,-0.67798 0.17459,-0.0968 0.58409,-0.19208 0.77292,-0.0219 0.28831,0.25978 0.47402,0.54047 0.7383,0.85319 1.76646,2.09016 3.85281,4.27568 5.1142,4.05256 2.99932,-0.53051 2.11719,-3.56589 1.7291,-6.54999 -1.12496,-8.64982 -4.1978,-16.58033 -5.70682,-19.9538 -0.11733,-0.2623 -0.22465,-0.51349 -0.31906,-0.71998 -0.0892,-0.19507 0.0377,-0.55601 0.15067,-0.66445 0.18469,-0.17725 0.40409,-0.2396 0.5111,-0.22485 0.26809,0.037 0.53135,0.12857 0.82936,0.21492 1.34419,0.38952 2.86301,0.91117 2.86301,0.91117 l 1.08934,2.94866 c 0,0 0.18057,1.9956 1.93115,2.20245 1.00136,0.11834 1.03619,-0.0764 1.18804,-1.60714 0.16422,-1.65488 -0.82646,-4.46349 -1.59267,-5.60121 -0.79928,-1.18688 -7.96888,-3.55736 -8.40672,-4.3848 -0.43782,-0.82743 -7.4293,-14.9362 -8.67802,-16.66307 -1.1154,-1.5425 5.85603,-9.10189 6.51278,-10.34303 0.65673,-1.24114 1.53254,-4.44726 1.31362,-5.89525 -0.21893,-1.44801 -2.07975,-2.06856 -2.40812,-0.72399 -0.32838,1.34458 -0.87601,4.86091 -0.98547,5.27462 -0.0949,0.35889 -5.50276,6.63311 -7.07719,8.69471 -0.24049,0.31491 -0.374,0.405 -0.57351,0.42772 -0.11078,0.0126 -0.34739,0.0444 -0.71492,-0.3132 -0.57797,-0.56236 -1.34558,-1.43079 -1.9471,-2.13221 -0.14425,-0.1682 -0.30767,-0.29842 -0.37437,-0.46099 -0.10325,-0.25163 -0.0291,-0.44275 -0.0291,-0.44275 0,0 0.1042,-0.32972 0.30468,-0.42576 0.28386,-0.13598 0.24454,-0.10961 0.39758,-0.17821 0.52182,-0.23394 1.14127,-0.6159 1.72808,-1.23777 1.3141,-1.39261 2.02928,-3.78318 1.26969,-5.80998 -0.62114,-1.65746 -2.59272,-3.76167 -5.0431,-3.8039 -0.58696,-0.0101 -1.16924,0.12054 -1.68067,0.29634 -0.16734,0.0575 -0.3144,0.17337 -0.47696,0.18374 -0.36438,0.0232 -0.53885,-0.20413 -0.53885,-0.20413 0,0 -0.23138,-0.14341 -0.23124,-0.57646 6e-5,-0.16174 0.0765,-0.27731 0.13264,-0.45057 0.93008,-2.870533 2.84379,-8.165118 4.72933,-9.649841 2.62699,-2.068572 9.46827,-8.118884 10.78177,-8.118884 1.31349,0 2.07999,-2.585962 0.32866,-2.482536 -1.75136,0.103365 -8.20949,3.51651 -10.78177,6.412528 -2.29749,2.586645 -5.08992,5.171623 -6.02031,7.498768 -0.60252,1.507066 -1.17674,5.196265 -1.74937,6.901755 -0.0222,0.0661 -0.0445,0.1292 -0.0666,0.18915 -0.16929,0.46015 -0.33267,0.45266 -0.49972,0.54506 -0.19641,0.0583 -0.41384,0.007 -0.59647,-0.0724 -0.13404,-0.058 -0.26666,-0.11653 -0.40006,-0.17073 -0.53364,-0.21678 -1.07979,-0.36385 -1.77948,-0.12675 -0.27791,0.0942 -0.606431,0.23423 -0.926551,0.1242 l -0.25167,-0.19844 c -0.16493,-0.28691 -0.13118,-0.28334 -0.24108,-0.68719 -0.92328,-3.392695 -3.23189,-9.571553 -6.45979,-13.1762 -3.49925,-3.907671 -7.0498,-9.513723 -8.66148,-9.484175 z"
       sodipodi:nodetypes="scccccssssscssssssssscsscccccsscsscccccsssccccccsccccsssccccssssssssscssssscssssssssssssssscssssssccscssscsscssssscsssccsscsssscsssscsssccsss" />
    <path
       id="path14650"
       style="fill:#000000;fill-opacity:1;stroke:#000000;stroke-width:0.2;stroke-dasharray:none;stroke-opacity:1"
       d="m 101.73539,80.262284 c -0.0262,-0.0094 -0.0372,0.03237 -0.031,0.133326 0.0165,0.267896 1.89549,20.1936 1.89549,20.1936 0.58049,4.83744 1.80642,10.51019 3.41891,16.57315 1.38542,5.20915 5.35409,14.64408 6.79132,17.60719 1.56752,3.23173 1.93016,4.51689 3.34915,5.80688 1.419,1.28999 5.63257,4.07818 6.92257,4.33617 1.28999,0.258 2.55216,0.0755 3.55327,-1.002 1.58712,-1.70829 0.20317,-6.91363 -0.44183,-9.23562 -0.645,-2.32195 -2.44654,-8.04772 -3.74809,-9.32708 -1.87079,-1.83888 -5.11832,-6.31604 -8.0853,-11.60497 -2.96695,-5.28897 -9.43798,-22.970661 -10.6102,-25.832017 -1.09509,-2.673062 -2.76083,-7.557788 -3.01429,-7.648629 z m 3.34088,12.051461 c 1.01408,2.363016 2.17318,5.162663 2.46755,6.291089 0.54729,2.097966 4.24001,10.720116 4.74338,11.949146 0.11216,0.27384 0.32137,0.69438 0.5886,1.20199 l -1.39682,2.28461 -3.20549,-8.77724 z m -1.07797,0.571541 3.36311,12.834364 0.93637,2.62981 -0.61236,4.82761 c -0.65398,-2.71402 -2.26564,-9.70939 -2.51303,-12.01839 -0.16119,-1.504451 -0.73062,-5.238923 -1.17409,-8.273394 z m 4.88808,17.118334 4.09845,11.51403 -2.01744,3.07681 c -0.95795,-2.76594 -2.21135,-7.26223 -2.80655,-9.51053 z m 4.62555,2.92437 c 1.41374,2.55799 3.56405,6.18957 4.408,7.68274 0.3052,0.53996 0.73457,1.18302 1.2082,1.84588 l -0.18449,1.52394 -4.60075,-2.19367 -0.14004,-0.2868 -2.24328,-6.14278 z m -0.0315,9.69863 3.1719,6.48953 -3.64009,0.34882 c -0.60451,-1.35559 -1.14346,-2.58299 -1.47691,-3.36104 -0.0132,-0.0308 -0.0284,-0.0711 -0.0419,-0.10335 z m 1.57407,0.61754 3.74034,1.9637 -0.55294,4.56251 z m 4.97799,0.43201 c 1.13544,1.49054 2.25931,2.82842 2.45928,3.03444 0.23266,0.23972 0.97634,1.7698 1.66708,3.21479 l -4.71961,-1.89859 z m -0.75655,5.55005 5.45342,1.88929 c 0.1927,0.40327 0.38442,0.8045 0.51056,1.05678 0.31205,0.6241 0.75399,2.18824 1.13585,3.87677 l -2.82515,2.42983 -3.60133,-5.21209 -0.95705,-1.95957 z m -2.15335,0.85266 1.91461,3.91759 0.50281,0.74724 -1.44746,4.50929 c -0.49093,-0.54368 -0.92708,-1.10509 -1.24437,-1.65313 -0.59689,-1.03102 -1.97387,-3.99726 -3.22409,-6.77116 z m 3.31969,6.00635 5.22914,7.77266 c -0.66753,0.28543 -2.9106,-0.65998 -4.26279,-1.65158 -0.67402,-0.49429 -1.5467,-1.1998 -2.37918,-1.99471 z m 6.23993,1.4087 c 0.25315,1.29344 0.43936,2.52798 0.47336,3.34399 0.0451,1.08313 -0.16039,1.75595 -0.45682,2.19779 l -2.6014,-3.76462 z" />
    <path
       id="path14650-4"
       style="fill:none;fill-opacity:1;stroke:#000000;stroke-width:0.2;stroke-dasharray:none;stroke-opacity:1"
       d="m 101.10623,175.70457 c 0.0262,-0.009 0.0372,0.0324 0.031,0.13332 -0.0165,0.2679 -1.895489,20.1936 -1.895489,20.1936 -0.58049,4.83744 -1.80642,10.51019 -3.41891,16.57315 -1.38542,5.20915 -5.35409,14.64408 -6.79132,17.60719 -1.56752,3.23173 -1.93016,4.51689 -3.34915,5.80688 -1.419,1.28999 -5.63257,4.07818 -6.92257,4.33617 -1.28999,0.258 -2.55216,0.0755 -3.55327,-1.002 -1.58712,-1.70829 -0.20317,-6.91363 0.44183,-9.23562 0.645,-2.32195 2.44654,-8.04772 3.74809,-9.32708 1.87079,-1.83888 5.11832,-6.31604 8.0853,-11.60497 2.96695,-5.28897 9.43798,-22.97066 10.6102,-25.83202 1.09509,-2.67306 2.760829,-7.55778 3.014289,-7.64862 z m -3.340879,12.05146 c -1.01408,2.36301 -2.17318,5.16266 -2.46755,6.29109 -0.54729,2.09796 -4.24001,10.72011 -4.74338,11.94914 -0.11216,0.27384 -0.32137,0.69438 -0.5886,1.20199 l 1.39682,2.28461 3.20549,-8.77724 z m 1.07797,0.57154 -3.36311,12.83436 -0.93637,2.62981 0.61236,4.82761 c 0.65398,-2.71402 2.26564,-9.70939 2.51303,-12.01839 0.16119,-1.50445 0.73062,-5.23892 1.17409,-8.27339 z m -4.88808,17.11833 -4.09845,11.51403 2.01744,3.07681 c 0.95795,-2.76594 2.21135,-7.26223 2.80655,-9.51053 z m -4.62555,2.92437 c -1.41374,2.55799 -3.56405,6.18957 -4.408,7.68274 -0.3052,0.53996 -0.73457,1.18302 -1.2082,1.84588 l 0.18449,1.52394 4.60075,-2.19367 0.14004,-0.2868 2.24328,-6.14278 z m 0.0315,9.69863 -3.1719,6.48953 3.64009,0.34882 c 0.60451,-1.35559 1.14346,-2.58299 1.47691,-3.36104 0.0132,-0.0308 0.0284,-0.0711 0.0419,-0.10335 z m -1.57407,0.61754 -3.74034,1.9637 0.55294,4.56251 z m -4.97799,0.43201 c -1.13544,1.49054 -2.25931,2.82842 -2.45928,3.03444 -0.23266,0.23972 -0.97634,1.7698 -1.66708,3.21479 l 4.71961,-1.89859 z m 0.75655,5.55005 -5.45342,1.88929 c -0.1927,0.40327 -0.38442,0.8045 -0.51056,1.05678 -0.31205,0.6241 -0.75399,2.18824 -1.13585,3.87677 l 2.82515,2.42983 3.60133,-5.21209 0.95705,-1.95957 z m 2.15335,0.85266 -1.91461,3.91759 -0.50281,0.74724 1.44746,4.50929 c 0.49093,-0.54368 0.92708,-1.10509 1.24437,-1.65313 0.59689,-1.03102 1.97387,-3.99726 3.22409,-6.77116 z m -3.31969,6.00635 -5.22914,7.77266 c 0.66753,0.28543 2.9106,-0.65998 4.26279,-1.65158 0.67402,-0.49429 1.5467,-1.1998 2.37918,-1.99471 z m -6.23993,1.4087 c -0.25315,1.29344 -0.43936,2.52798 -0.47336,3.34399 -0.0451,1.08313 0.16039,1.75595 0.45682,2.19779 l 2.6014,-3.76462 z" />
    <path
       id="path19022"
       style="fill:#000000;fill-opacity:1;stroke:#000000;stroke-width:0.2;stroke-dasharray:none;stroke-opacity:1"
       d="m 101.4057,80.37804 c -0.0566,-0.01105 -0.11354,0.06202 -0.17105,0.23151 -0.85459,2.518325 -3.195012,9.947678 -4.485,13.043648 -1.289988,3.095968 -7.580041,18.036552 -13.237435,26.400452 -1.470653,2.17423 -3.57464,6.59089 -5.274097,8.57054 l -0.671793,1.32498 c -1.06396,2.15788 -2.565615,6.5387 -3.065963,9.61389 -0.334681,2.05699 -0.01095,4.36462 1.305347,5.52472 1.351243,1.19098 3.471033,0.23498 4.431771,-0.22169 1.214415,-0.57726 3.574435,-2.07975 5.638415,-4.01474 2.063977,-1.93498 3.668575,-3.34228 6.023922,-6.26008 2.160728,-2.67674 4.52804,-5.6405 6.087484,-9.75806 1.865897,-4.92678 2.793119,-8.70169 3.663859,-13.63586 0.73742,-4.17871 1.2602,-12.914942 1.1312,-16.010912 -0.11892,-2.854095 -0.70848,-14.678067 -1.37666,-14.808398 z m -1.721862,10.377144 -1.507918,7.542175 -2.975529,8.854241 -3.121257,0.66197 c 1.095344,-1.9392 1.992085,-3.5559 2.302185,-4.21421 0.836264,-1.77531 3.900157,-8.530156 5.302519,-12.844176 z m 1.168922,0.564823 c 0.0838,0.0021 0.37415,3.702038 0.39739,5.825485 0,1.641882 0.032,5.371878 -0.32608,7.908048 -0.16312,1.15517 -0.49197,3.66317 -0.91622,6.32519 l -2.390036,-8.36486 1.421102,-4.361494 0.774113,-3.031856 1.032491,-4.289144 c 0.002,-0.0078 0.005,-0.01144 0.007,-0.01137 z m -3.870566,13.644643 2.812748,7.70909 c -0.273419,1.6149 -0.577356,3.21156 -0.898653,4.53874 l -5.211568,-2.127 z m -2.218986,3.38739 -2.399854,6.58616 -2.079976,4.51394 -4.607987,-0.33745 c 1.056339,-1.9473 3.490816,-6.17164 5.540747,-9.77718 z m -1.669666,8.16436 1.56838,0.89607 1.420585,7.26829 c -0.791144,1.77687 -1.58613,3.4597 -2.129069,4.51497 -0.159595,0.3102 -0.391756,0.69035 -0.67231,1.11466 l -6.352067,-0.60099 -0.08372,0.0532 z m 2.417424,1.38131 2.719214,1.55391 c -0.381284,1.0654 -0.909535,2.37001 -1.48208,3.70572 z m -10.591085,2.62465 1.017509,0.0677 1.256254,5.56503 -1.667082,3.61787 -1.015958,1.31051 -5.2033,-1.95647 c 1.10786,-1.70351 4.283724,-6.28355 5.612577,-8.60464 z m 2.268079,0.15089 2.456697,0.16382 -1.705322,3.70003 z m -0.762744,9.78804 3.508829,0.7953 -6.881233,6.61768 -0.476457,-2.45928 z m -7.894609,0.0977 5.391402,1.28312 -8.267195,10.66808 c -0.18867,-1.46018 -0.08632,-3.76469 0.332796,-5.13302 0.612528,-1.99974 1.784002,-5.13279 2.542997,-6.81818 z m 12.488643,0.94361 1.227316,0.27802 c -2.070048,2.81417 -5.127752,6.40282 -5.796546,7.00474 -0.422376,0.38014 -1.556512,1.34263 -2.766756,2.34249 l -0.392741,-2.02778 z m -9.173083,4.85241 -0.06046,0.1261 0.709517,5.48235 -0.159163,0.15968 c -1.07096,1.07493 -1.69309,1.46134 -2.293917,1.8619 -1.220024,0.81336 -2.900321,0.96545 -3.982186,-0.1974 z" />
    <path
       id="path19022-8"
       style="fill:none;fill-opacity:1;stroke:#000000;stroke-width:0.2;stroke-dasharray:none;stroke-opacity:1"
       d="m 101.63326,175.38806 c 0.0566,-0.011 0.11354,0.062 0.17105,0.23151 0.85459,2.51833 3.19501,9.94768 4.485,13.04365 1.28998,3.09597 7.58004,18.03655 13.23743,26.40045 1.47065,2.17423 3.57463,6.59089 5.27409,8.57054 l 0.67179,1.32498 c 1.06396,2.15788 2.56562,6.5387 3.06597,9.61389 0.33468,2.05699 0.0109,4.36462 -1.30535,5.52472 -1.35124,1.19098 -3.47104,0.23498 -4.43177,-0.22169 -1.21442,-0.57726 -3.57443,-2.07975 -5.63841,-4.01474 -2.06397,-1.93498 -3.66857,-3.34228 -6.02392,-6.26008 -2.16073,-2.67674 -4.52804,-5.6405 -6.08748,-9.75806 -1.8659,-4.92678 -2.79312,-8.70169 -3.66386,-13.63586 -0.73742,-4.17871 -1.2602,-12.91494 -1.1312,-16.01091 0.11892,-2.8541 0.70848,-14.67807 1.37666,-14.8084 z m 1.72186,10.37714 1.50792,7.54218 2.97553,8.85424 3.12125,0.66197 c -1.09534,-1.9392 -1.99208,-3.5559 -2.30218,-4.21421 -0.83627,-1.77531 -3.90016,-8.53016 -5.30252,-12.84418 z m -1.16892,0.56483 c -0.0838,0.002 -0.37415,3.70204 -0.39739,5.82548 0,1.64188 -0.032,5.37188 0.32608,7.90805 0.16312,1.15517 0.49197,3.66317 0.91622,6.32519 l 2.39003,-8.36486 -1.4211,-4.36149 -0.77411,-3.03186 -1.03249,-4.28914 c -0.002,-0.008 -0.005,-0.0114 -0.007,-0.0114 z m 3.87056,13.64464 -2.81274,7.70909 c 0.27341,1.6149 0.57735,3.21156 0.89865,4.53874 l 5.21157,-2.127 z m 2.21899,3.38739 2.39985,6.58616 2.07998,4.51394 4.60799,-0.33745 c -1.05634,-1.9473 -3.49082,-6.17164 -5.54075,-9.77718 z m 1.66967,8.16436 -1.56838,0.89607 -1.42059,7.26829 c 0.79114,1.77687 1.58613,3.4597 2.12907,4.51497 0.15959,0.3102 0.39176,0.69035 0.67231,1.11466 l 6.35207,-0.60099 0.0837,0.0532 z m -2.41743,1.38131 -2.71921,1.55391 c 0.38128,1.0654 0.90953,2.37001 1.48208,3.70572 z m 10.59109,2.62465 -1.01751,0.0677 -1.25626,5.56503 1.66709,3.61787 1.01595,1.31051 5.20329,-1.95647 c -1.10786,-1.70351 -4.28371,-6.28355 -5.61256,-8.60464 z m -2.26808,0.15089 -2.4567,0.16382 1.70532,3.70003 z m 0.76274,9.78804 -3.50883,0.7953 6.88124,6.61768 0.47645,-2.45928 z m 7.8946,0.0977 -5.39139,1.28312 8.26718,10.66808 c 0.18867,-1.46018 0.0863,-3.76469 -0.33279,-5.13302 -0.61253,-1.99974 -1.784,-5.13279 -2.543,-6.81818 z m -12.48863,0.94361 -1.22732,0.27802 c 2.07005,2.81417 5.12775,6.40282 5.79655,7.00474 0.42237,0.38014 1.55651,1.34263 2.76675,2.34249 l 0.39274,-2.02778 z m 9.17307,4.85241 0.0605,0.1261 -0.70951,5.48235 0.15916,0.15968 c 1.07096,1.07493 1.69309,1.46134 2.29391,1.8619 1.22003,0.81336 2.90032,0.96545 3.98219,-0.1974 z" />
    <path
       id="path19060"
       style="fill:#000000;fill-opacity:1;stroke:#000000;stroke-width:0.2;stroke-dasharray:none;stroke-opacity:1"
       d="m 100.48121,118.90592 c -0.0702,-0.003 -0.11139,0.001 -0.11628,0.0165 l -2.143535,6.65902 c -0.328076,1.01913 -0.789045,2.14881 -1.874821,3.71347 -1.457029,2.09966 -3.332975,4.70449 -4.668966,6.26163 -1.070767,1.24802 -2.470133,2.6939 -2.470133,2.6939 l 0.387056,1.90272 c 0.650899,3.20028 1.673978,5.05945 2.656169,6.7815 1.032523,1.81028 2.893542,4.31286 3.89692,5.225 1.003374,0.91217 3.71665,2.77266 5.08134,2.87115 1.78749,0.129 3.67736,0.20582 5.23793,-0.84336 1.52394,-1.02456 3.72051,-3.75194 4.39973,-5.04 1.02589,-1.94552 1.96806,-3.65746 2.42414,-6.21151 0.45608,-2.55405 1.36504,-5.32455 0.74621,-6.34018 -0.70624,-1.1591 -3.6057,-8.10102 -4.00596,-8.94674 -0.78825,-1.66554 -2.38255,-8.03951 -2.93264,-8.37262 -2.1783,0.23453 -1.69109,0.0771 -3.08146,0.14366 -1.11361,-0.0664 -3.04422,-0.49047 -3.5357,-0.51418 z m 0.16898,3.59513 c 0.628,0.0241 2.31039,0.39729 3.22151,0.38292 0.99143,-0.0156 2.71777,-0.16898 3.03702,-0.16898 0.31926,0 1.36477,4.80539 1.36477,4.80539 0,0 -1.82396,0.59273 -2.96416,0.59273 -1.1402,0 -2.87814,0.0703 -3.96823,-0.0455 -1.13548,-0.12057 -2.00658,-0.22788 -2.189013,-0.41032 -0.182432,-0.18243 1.003553,-4.10517 1.003553,-4.10517 l 0.25063,-1.00304 c 0.0102,-0.0407 0.099,-0.0536 0.24392,-0.0481 z m -4.485517,8.62221 c 0.912161,0.36486 5.541387,1.14024 7.274487,1.04903 1.73311,-0.0912 3.10125,-0.0914 4.65192,-0.4563 1.55068,-0.36486 2.59984,-0.45578 2.59984,-0.45578 l 2.55385,5.83788 c 0,0 -1.2086,0.43329 -2.66806,0.70694 -1.45946,0.27364 -5.24453,0.83512 -7.20576,0.82062 -2.05314,-0.0152 -7.020469,-0.56999 -8.779825,-1.45935 -1.787233,-0.90344 -1.824178,-1.52755 -1.824178,-1.52755 z m -5.475635,7.54424 0.852661,0.40825 c 0.593138,0.28434 5.348579,1.51189 7.869804,1.74149 2.636157,0.24006 5.917357,0.13652 7.804177,-0.007 1.4449,-0.10981 5.51928,-1.45623 5.79293,-1.63866 0.27365,-0.18243 -0.19912,2.7829 -0.92656,4.48241 -0.42545,0.99399 -0.9338,1.61334 -0.9338,1.61334 0,0 -2.73247,0.27879 -5.29373,0.44545 a 3.7087271,3.7087271 0 0 1 0.11834,0.92656 3.7087271,3.7087271 0 0 1 -0.41031,1.69085 c 0.30468,-0.006 0.60574,-0.0146 0.89814,-0.0284 2.07086,-0.098 3.74121,-0.68249 3.43803,-0.1912 -0.39647,0.64246 -1.86665,2.87078 -2.31614,3.24373 -0.45933,0.3811 -3.9948,0.73316 -5.12992,0.68936 -1.23358,-0.0476 -4.793462,-0.67086 -5.340758,-0.99012 -0.547296,-0.31925 -2.707328,-3.43907 -2.707328,-3.43907 0,0 2.581729,0.22864 4.413167,0.39429 a 3.7087271,3.7087271 0 0 1 -0.262516,-1.36942 3.7087271,3.7087271 0 0 1 0.185001,-1.15084 c -2.395208,-0.27129 -5.055576,-0.64604 -5.250842,-0.8971 -0.319257,-0.41047 -1.264497,-1.09438 -2.075326,-3.16983 -0.446871,-1.14384 -0.72502,-2.75436 -0.72502,-2.75436 z" />
    <path
       id="path19060-4"
       style="fill:none;fill-opacity:1;stroke:#000000;stroke-width:0.2;stroke-dasharray:none;stroke-opacity:1"
       d="m 102.72797,214.27493 c 0.0702,-0.003 0.11139,10e-4 0.11628,0.0165 l 2.14354,6.65902 c 0.32808,1.01913 0.78904,2.14881 1.87482,3.71347 1.45703,2.09966 3.33297,4.70449 4.66897,6.26163 1.07076,1.24802 2.47013,2.6939 2.47013,2.6939 l -0.38706,1.90272 c -0.6509,3.20028 -1.67398,5.05945 -2.65617,6.7815 -1.03252,1.81028 -2.89354,4.31286 -3.89692,5.225 -1.00337,0.91217 -3.71665,2.77266 -5.08134,2.87115 -1.78749,0.129 -3.677363,0.20582 -5.237933,-0.84336 -1.52394,-1.02456 -3.72051,-3.75194 -4.39973,-5.04 -1.02589,-1.94552 -1.96806,-3.65746 -2.42414,-6.21151 -0.45608,-2.55405 -1.36504,-5.32455 -0.74621,-6.34018 0.70624,-1.1591 3.6057,-8.10102 4.00596,-8.94674 0.78825,-1.66554 2.38255,-8.03951 2.93264,-8.37262 2.1783,0.23453 1.69109,0.0771 3.08146,0.14366 1.113613,-0.0664 3.044223,-0.49047 3.535703,-0.51418 z m -0.16898,3.59513 c -0.628,0.0241 -2.31039,0.39729 -3.221513,0.38292 -0.99143,-0.0156 -2.71777,-0.16898 -3.03702,-0.16898 -0.31926,0 -1.36477,4.80539 -1.36477,4.80539 0,0 1.82396,0.59273 2.96416,0.59273 1.1402,0 2.878143,0.0703 3.968233,-0.0455 1.13548,-0.12057 2.00658,-0.22788 2.18902,-0.41032 0.18243,-0.18243 -1.00356,-4.10517 -1.00356,-4.10517 l -0.25063,-1.00304 c -0.0102,-0.0407 -0.099,-0.0536 -0.24392,-0.0481 z m 4.48552,8.62221 c -0.91216,0.36486 -5.54139,1.14024 -7.274493,1.04903 -1.73311,-0.0912 -3.10125,-0.0914 -4.65192,-0.4563 -1.55068,-0.36486 -2.59984,-0.45578 -2.59984,-0.45578 l -2.55385,5.83788 c 0,0 1.2086,0.43329 2.66806,0.70694 1.45946,0.27364 5.24453,0.83512 7.20576,0.82062 2.053143,-0.0152 7.020473,-0.56999 8.779833,-1.45935 1.78723,-0.90344 1.82418,-1.52755 1.82418,-1.52755 z m 5.47564,7.54424 -0.85267,0.40825 c -0.59313,0.28434 -5.34857,1.51189 -7.8698,1.74149 -2.63616,0.24006 -5.917363,0.13652 -7.804183,-0.007 -1.4449,-0.10981 -5.51928,-1.45623 -5.79293,-1.63866 -0.27365,-0.18243 0.19912,2.7829 0.92656,4.48241 0.42545,0.99399 0.9338,1.61334 0.9338,1.61334 0,0 2.73247,0.27879 5.29373,0.44545 a 3.7087271,3.7087271 0 0 0 -0.11834,0.92656 3.7087271,3.7087271 0 0 0 0.41031,1.69085 c -0.30468,-0.006 -0.60574,-0.0146 -0.89814,-0.0284 -2.07086,-0.098 -3.74121,-0.68249 -3.43803,-0.1912 0.39647,0.64246 1.86665,2.87078 2.31614,3.24373 0.45933,0.3811 3.9948,0.73316 5.129923,0.68936 1.23358,-0.0476 4.79347,-0.67086 5.34076,-0.99012 0.5473,-0.31925 2.70733,-3.43907 2.70733,-3.43907 0,0 -2.58173,0.22864 -4.41317,0.39429 a 3.7087271,3.7087271 0 0 0 0.26252,-1.36942 3.7087271,3.7087271 0 0 0 -0.185,-1.15084 c 2.39521,-0.27129 5.05557,-0.64604 5.25084,-0.8971 0.31926,-0.41047 1.2645,-1.09438 2.07533,-3.16983 0.44687,-1.14384 0.72502,-2.75436 0.72502,-2.75436 z" />
    <path
       id="path19848"
       style="fill:#000000;fill-opacity:1;stroke:none;stroke-width:0.2;stroke-dasharray:none;stroke-opacity:1"
       d="m 93.563798,63.865352 c -0.947958,0.01439 -1.721756,0.238258 -2.50579,0.522449 -0.883954,0.32041 -1.767376,1.291142 -2.130619,2.202966 -0.298616,0.749595 -0.449351,2.535957 0.07028,3.900538 0.526112,1.381601 2.532383,2.964278 2.806031,3.101102 0.273647,0.136824 1.304519,0.02854 2.103231,-0.573608 0.971604,-0.732496 1.572391,-1.288109 2.344042,-2.705778 0.791636,-1.454377 0.350268,-5.311779 0.07338,-5.504057 l -0.37207,-0.258382 c 0,0 -1.074807,-0.634695 -1.970939,-0.677995 -0.143069,-0.0069 -0.282123,-0.0093 -0.417546,-0.0072 z m 0.659391,1.266073 a 1.2862346,1.2862346 0 0 1 1.286227,1.286226 1.2862346,1.2862346 0 0 1 -1.286227,1.286227 1.2862346,1.2862346 0 0 1 -1.286226,-1.286227 1.2862346,1.2862346 0 0 1 1.286226,-1.286226 z" />
    <path
       id="path19848-8"
       style="fill:none;fill-opacity:1;stroke:#000000;stroke-width:0.2;stroke-dasharray:none;stroke-opacity:1"
       d="m 115.94376,239.12369 c 0.94795,0.0144 1.72175,0.23826 2.50579,0.52245 0.88395,0.32041 1.76737,1.29114 2.13061,2.20297 0.29862,0.74959 0.44936,2.53595 -0.0703,3.90053 -0.52611,1.38161 -2.53238,2.96428 -2.80603,3.10111 -0.27364,0.13682 -1.30452,0.0285 -2.10323,-0.57361 -0.9716,-0.7325 -1.57239,-1.28811 -2.34404,-2.70578 -0.79164,-1.45438 -0.35027,-5.31178 -0.0734,-5.50406 l 0.37207,-0.25838 c 0,0 1.07481,-0.63469 1.97094,-0.67799 0.14307,-0.007 0.28212,-0.009 0.41755,-0.007 z m -0.6594,1.26608 a 1.2862346,1.2862346 0 0 0 -1.28622,1.28622 1.2862346,1.2862346 0 0 0 1.28622,1.28623 1.2862346,1.2862346 0 0 0 1.28623,-1.28623 1.2862346,1.2862346 0 0 0 -1.28623,-1.28622 z" />
    <path
       id="path19958"
       style="fill:#000000;fill-opacity:1;stroke:none;stroke-width:0.2;stroke-dasharray:none;stroke-opacity:1"
       d="m 109.34268,63.596635 c -0.8419,0 -1.71974,0.08342 -2.281,0.410828 -0.56127,0.327402 -1.19269,0.93586 -1.19269,0.93586 -0.0468,0.654811 -0.20594,1.858682 0.0279,2.981213 0.23386,1.122531 0.89137,2.517596 1.35909,3.265951 0.46773,0.748355 1.84015,1.890819 2.30786,2.077909 0.46773,0.187087 1.33009,0.345491 1.89136,0.01809 0.56126,-0.327403 1.16622,-0.883385 1.78594,-1.713591 0.4443,-0.847746 0.74266,-1.48479 0.77773,-2.747636 -0.0935,-1.216076 -0.22227,-2.151465 -0.76016,-2.94659 -0.40768,-0.602657 -1.28591,-1.332958 -1.80041,-1.660364 -0.51449,-0.327402 -1.27373,-0.621667 -2.11563,-0.621667 z m -1.06453,1.298629 a 1.2862346,1.2862346 0 0 1 1.28622,1.286226 1.2862346,1.2862346 0 0 1 -1.28622,1.286226 1.2862346,1.2862346 0 0 1 -1.28623,-1.286226 1.2862346,1.2862346 0 0 1 1.28623,-1.286226 z" />
    <path
       id="path19958-7"
       style="fill:none;fill-opacity:1;stroke:#000000;stroke-width:0.2;stroke-dasharray:none;stroke-opacity:1"
       d="m 85.897965,238.54451 c 0.8419,0 1.71974,0.0834 2.281,0.41083 0.56127,0.3274 1.19269,0.93586 1.19269,0.93586 0.0468,0.65481 0.20594,1.85868 -0.0279,2.98122 -0.23386,1.12253 -0.89137,2.51759 -1.35909,3.26595 -0.46773,0.74835 -1.84015,1.89082 -2.30786,2.07791 -0.46773,0.18708 -1.33009,0.34549 -1.89136,0.0181 -0.56126,-0.32741 -1.16622,-0.88339 -1.78594,-1.71359 -0.4443,-0.84775 -0.74266,-1.48479 -0.77773,-2.74764 0.0935,-1.21608 0.22227,-2.15147 0.76016,-2.94659 0.40768,-0.60266 1.28591,-1.33296 1.80041,-1.66036 0.51449,-0.32741 1.27373,-0.62167 2.11563,-0.62167 z m 1.06453,1.29863 a 1.2862346,1.2862346 0 0 0 -1.28622,1.28623 1.2862346,1.2862346 0 0 0 1.28622,1.28623 1.2862346,1.2862346 0 0 0 1.28623,-1.28623 1.2862346,1.2862346 0 0 0 -1.28623,-1.28623 z" />
  </g>
</svg>
