<?xml version="1.0" encoding="UTF-8" standalone="no"?>
<!-- Created with Inkscape (http://www.inkscape.org/) -->

<svg
   width="3.7111864in"
   height="5.8090882in"
   viewBox="0 0 94.264135 147.55084"
   version="1.1"
   id="svg35477"
   inkscape:version="1.2 (dc2aedaf03, 2022-05-15)"
   sodipodi:docname="luciole socle laser.svg"
   xml:space="preserve"
   xmlns:inkscape="http://www.inkscape.org/namespaces/inkscape"
   xmlns:sodipodi="http://sodipodi.sourceforge.net/DTD/sodipodi-0.dtd"
   xmlns="http://www.w3.org/2000/svg"
   xmlns:svg="http://www.w3.org/2000/svg"><sodipodi:namedview
     id="namedview35479"
     pagecolor="#ffffff"
     bordercolor="#000000"
     borderopacity="0.25"
     inkscape:showpageshadow="2"
     inkscape:pageopacity="0.0"
     inkscape:pagecheckerboard="0"
     inkscape:deskcolor="#d1d1d1"
     inkscape:document-units="mm"
     showgrid="false"
     inkscape:zoom="0.70710678"
     inkscape:cx="-207.18229"
     inkscape:cy="299.10617"
     inkscape:window-width="1920"
     inkscape:window-height="1001"
     inkscape:window-x="-9"
     inkscape:window-y="-9"
     inkscape:window-maximized="1"
     inkscape:current-layer="layer1"
     showguides="false" /><defs
     id="defs35474"><clipPath
       clipPathUnits="userSpaceOnUse"
       id="clipPath27797"><path
         d="M -710.77622,190.82796 H 992.77281 v -673.7601 H -710.77622 Z"
         id="path27799"
         style="stroke-width:0.999999" /></clipPath><clipPath
       clipPathUnits="userSpaceOnUse"
       id="clipPath27793"><path
         d="M -854.68132,185.31195 H 848.8677 v -673.7601 H -854.68132 Z"
         id="path27795"
         style="stroke-width:0.999999" /></clipPath><clipPath
       clipPathUnits="userSpaceOnUse"
       id="clipPath27789"><path
         d="M -251.27741,333.66721 H 1452.2716 V -340.09288 H -251.27741 Z"
         id="path27791"
         style="stroke-width:0.999999" /></clipPath><clipPath
       clipPathUnits="userSpaceOnUse"
       id="clipPath27785"><path
         d="M -400.73187,357.84696 H 1302.8172 v -673.7601 H -400.73187 Z"
         id="path27787"
         style="stroke-width:0.999999" /></clipPath><inkscape:path-effect
       effect="fill_between_many"
       method="originald"
       linkedpaths="#path16960-6-7,0,1"
       id="path-effect53223"
       is_visible="true"
       lpeversion="0"
       join="true"
       close="true"
       autoreverse="true" /><inkscape:path-effect
       effect="fill_between_many"
       method="originald"
       linkedpaths="#path16960-6-7-8,0,1"
       id="path-effect53223-0"
       is_visible="true"
       lpeversion="0"
       join="true"
       close="true"
       autoreverse="true" /><inkscape:path-effect
       effect="fill_between_many"
       method="originald"
       linkedpaths="#path16960-6-7-8-9,0,1"
       id="path-effect53223-0-3"
       is_visible="true"
       lpeversion="0"
       join="true"
       close="true"
       autoreverse="true" /></defs><g
     inkscape:label="Calque 1"
     inkscape:groupmode="layer"
     id="layer1"
     transform="translate(-10.547111,-9.3037442)"><rect
       style="fill:none;stroke:#0000ff;stroke-width:0.488087;stroke-linecap:butt;stroke-linejoin:round;stroke-dasharray:none;stroke-opacity:1;paint-order:normal"
       id="rect43930-5"
       width="93.776047"
       height="147.06276"
       x="10.791155"
       y="9.5477877"
       ry="2.3821566" /><path
       id="path14522-7-7-0-8"
       style="fill:none;stroke:#ff0000;stroke-width:0.61;stroke-dasharray:none;stroke-opacity:1"
       d="m 39.501955,24.03577 c -1.8189,0.46449 -3.66106,0.61869 -5.48242,1.06836 -0.97625,0.27568 -1.12097,1.63223 -0.32582,2.19748 1.04409,0.93299 2.50261,0.24667 3.73439,0.34545 0.75122,-0.0297 1.53706,0.0805 2.04203,0.69964 2.83588,2.68311 5.25631,5.77746 7.54935,8.92777 1.68153,2.32965 2.62315,5.07898 3.74616,7.69842 0.38396,0.96639 0.75604,1.94639 1.08006,2.93007 -0.21648,0.39832 -0.74132,-0.17578 -1.06641,-0.14453 -1.9833,-0.50674 -4.13392,0.21153 -5.7168,1.43164 -1.80496,1.5481 -2.28036,4.3622 -1.34375,6.5039 0.66684,1.42176 1.75877,2.63678 2.96094,3.59571 -0.29909,0.56095 -0.9485,0.93325 -1.38867,1.40625 -0.5469,0.42647 -1.02675,0.98979 -1.5918,1.36328 -1.1005,-0.81877 -1.93599,-1.99785 -2.84607,-3.03309 -1.76047,-2.13366 -3.44656,-4.32722 -5.10705,-6.53918 -0.0405,-1.72279 0.14077,-3.52887 -0.44875,-5.17845 -0.27274,-0.91801 -1.17983,-1.62446 -2.15867,-1.37233 -1.1988,0.20546 -1.38839,1.6553 -1.35581,2.65742 0.13322,1.79904 -0.0426,3.67922 0.62924,5.39141 0.4892,1.41455 1.8765,2.15697 2.72284,3.32102 2.12497,2.59886 4.23491,5.22915 5.97834,8.07937 0.24591,0.5082 -0.3687,1.01711 -0.50418,1.51686 -2.40593,4.88423 -4.985,9.68875 -7.19425,14.66603 -0.41857,1.17996 -1.712,1.68619 -2.68957,2.32194 -1.56457,0.8678 -3.20186,1.59711 -4.85419,2.28033 -0.97383,1.85562 -2.08933,3.68314 -2.65007,5.71568 -0.38049,1.64994 1.92332,2.72042 3.13054,1.72377 0.84103,-0.82004 1.0887,-2.05599 1.58772,-3.0889 0.21293,-0.50447 0.28025,-1.12775 0.89937,-1.28072 0.90006,-0.46491 1.75752,-1.08246 2.68478,-1.45265 0.31686,0.27292 -0.22042,0.72565 -0.2137,1.05517 -2.35668,6.43818 -4.54556,12.99671 -5.59414,19.79204 -0.26793,2.31989 -0.5885,4.77152 0.1887,7.0278 0.33722,1.06111 1.55535,1.71354 2.60547,1.25976 1.5453,-0.55911 2.64034,-1.87768 3.7832,-2.96875 0.43103,0.15585 -0.13797,0.69293 -0.15251,0.98076 -1.40814,3.53063 -2.77501,7.20263 -2.86623,11.04541 -0.0567,1.92336 0.60449,4.18661 2.52779,4.99816 2.03485,0.80116 4.21355,-0.22322 5.95703,-1.26363 1.86706,-1.12543 3.50371,-2.59548 5.03197,-4.13179 0.53259,0.0684 -0.10278,0.74527 -0.14062,1.04297 -1.60281,3.78257 -3.20609,7.56495 -4.8086,11.34765 0.76144,2.05991 1.40685,4.21328 2.62891,6.05664 0.65266,0.84231 1.9579,0.58262 2.7654,0.1153 1.03818,-0.5909 0.95232,-1.99213 0.38889,-2.88873 -0.5111,-1.09212 -1.52493,-1.98278 -1.64453,-3.22657 0.48812,-1.51003 1.15206,-2.97846 1.7057,-4.47364 0.55508,-1.36143 1.04897,-2.78415 1.73376,-4.07128 0.46232,-0.0392 0.39815,0.73716 0.67139,1.001 1.76218,3.51196 4.0059,6.99739 7.36767,9.16697 2.73359,1.80012 6.45431,1.7652 9.27361,0.18158 3.07206,-1.81063 4.72063,-5.17178 6.08772,-8.32416 0.31056,-0.65009 0.48056,-1.40517 0.85156,-2.00195 0.47254,0.1133 0.47989,0.83034 0.77703,1.16554 1.01195,2.06687 1.97707,4.19212 2.75813,6.34227 -0.37784,2.0288 -1.16859,3.94991 -2.02735,5.8125 -0.36367,1.16299 0.94413,2.05186 1.99597,1.82277 1.61645,-0.167 2.32839,-1.82918 2.87943,-3.13946 0.58016,-1.60554 1.23532,-3.28886 1.13241,-5.0212 -0.74178,-2.43598 -2.05101,-4.6519 -3.18314,-6.91997 -0.53359,-1.06863 -1.17605,-2.10215 -1.64107,-3.19331 0.14,-0.39879 0.56854,0.12631 0.73828,0.27734 2.18377,1.69774 4.48285,3.52488 7.26953,4.04688 1.75243,0.35976 3.54429,-0.78736 4.12477,-2.44363 0.92523,-2.53593 0.29978,-5.30446 -0.34318,-7.83136 -0.88632,-3.25553 -2.204,-6.37207 -3.54331,-9.45939 0.29993,-0.4688 0.63692,0.41781 0.88281,0.59375 1.36211,1.51254 2.66939,3.23722 4.56641,4.09961 1.56172,0.55691 3.42833,-0.68502 3.55875,-2.33927 0.24691,-2.06817 -0.36391,-4.11483 -0.57147,-6.16298 -1.07215,-6.64704 -3.08187,-13.13471 -5.83103,-19.27705 0.12293,-0.44303 0.72381,0.0514 1.02536,0.0542 0.81022,0.24052 1.61496,0.49866 2.41604,0.76809 0.4396,1.18472 0.90176,2.36154 1.23633,3.57617 0.45028,1.25632 1.98448,2.06399 3.24219,1.55469 0.73013,-0.55957 0.59867,-1.62108 0.6833,-2.44177 -0.0934,-1.93433 -0.72561,-3.8505 -1.72822,-5.50159 -1.08548,-1.10888 -2.64056,-1.57856 -4.00848,-2.24586 -1.45157,-0.68755 -3.01305,-1.18958 -4.3548,-2.08226 -2.78477,-5.44655 -5.42354,-10.97251 -8.44108,-16.29488 -0.64709,-0.6961 0.10045,-1.59259 0.42441,-2.26435 1.66475,-2.84366 3.98146,-5.22722 5.86237,-7.91538 0.83626,-1.84898 1.40134,-3.87296 1.40625,-5.91211 0.0397,-1.37381 -1.53955,-2.77956 -2.84978,-2.01043 -0.86619,0.62704 -0.73792,1.84838 -1.00287,2.78174 -0.25542,1.14699 -0.32531,2.36203 -0.68091,3.46962 -2.30547,2.90124 -4.77379,5.77112 -7.1305,8.66727 -0.80014,-0.50211 -1.35446,-1.38204 -2.02131,-2.06098 -0.16619,-0.23442 -0.78941,-0.63507 -0.22575,-0.8096 3.35454,-1.32418 4.92066,-5.93874 2.84152,-8.94669 -1.33327,-2.09426 -3.98942,-3.57684 -6.47526,-2.76289 -0.27069,-3e-4 -0.83692,0.53003 -0.85944,-0.004 0.86055,-2.54554 1.78036,-5.20346 3.04297,-7.51172 0.60104,-1.21909 1.52676,-2.22458 2.63674,-2.99843 2.87217,-2.30524 5.5979,-4.82504 8.70009,-6.82534 0.62798,-0.48505 1.58137,-0.28711 2.05509,-1.01887 0.76504,-0.7845 0.81069,-2.49552 -0.43098,-2.81557 -1.35411,-0.21276 -2.61484,0.57964 -3.8226,1.07831 -3.29068,1.63214 -6.49706,3.63554 -8.86265,6.49496 -1.87611,2.11245 -4.09271,4.06887 -5.21269,6.72171 -0.82,2.33646 -1.0149,4.85447 -1.86769,7.17573 -0.54381,0.0488 -1.05756,-0.43886 -1.63458,-0.44615 -0.60417,-0.11923 -1.17686,0.14026 -1.75213,0.25865 -0.4325,-0.97116 -0.6124,-2.10174 -1.01782,-3.11229 -1.48978,-4.23299 -3.44542,-8.41071 -6.55389,-11.70907 -2.23085,-2.56968 -4.09581,-5.45876 -6.53539,-7.84211 -0.50229,-0.4486 -1.10212,-0.95048 -1.81673,-0.91466 z" /><path
       inkscape:original-d="M 0,0"
       inkscape:path-effect="#path-effect53223-0-3"
       d="M 0,0"
       id="path53225-3-8"
       class="UnoptimicedTransforms"
       transform="translate(-48.758376,-24.001002)" /><path
       style="fill:#000000;stroke-width:0.00805003"
       d="m 20.583756,32.627881 c -2.085147,1.167572 -4.76747,0.453426 -5.960142,-1.586829 -1.858192,-3.178745 0.676653,-7.049555 4.336378,-6.621809 0.01227,0.0017 0.01156,0.02278 -4.83e-4,0.124197 -0.07281,0.571946 -0.04821,1.17255 0.07113,1.739996 0.02578,0.122152 0.0374,0.171825 0.06328,0.269441 0.0011,0.006 -0.06602,-0.0057 -0.150269,-0.02446 -2.022369,-0.459341 -3.589585,1.741107 -2.486239,3.490797 1.100198,1.744688 3.753339,1.290734 4.220734,-0.722166 l 0.0378,-0.162841 0.06827,0.05702 c 0.486419,0.406501 1.062565,0.726624 1.68702,0.937336 l 0.124933,0.04218 -0.02373,0.068 c -0.355083,1.019507 -1.064315,1.871655 -1.988404,2.389096 z m 5.633894,-3.549548 c -3.353247,1.757304 -7.217043,-1.199151 -6.375913,-4.878649 0.732777,-3.205551 4.609631,-4.511029 7.142183,-2.405022 1.269669,1.05583 1.752209,2.633853 1.514612,4.098666 -0.210538,1.29768 -0.986334,2.506584 -2.280882,3.185005 z m -0.710113,-2.016174 c 1.422646,-1.038055 1.234312,-3.212811 -0.343868,-3.970909 -1.635288,-0.785515 -3.501924,0.513836 -3.330842,2.318585 0.168301,1.77519 2.233584,2.703867 3.67471,1.652324 z m 9.838864,-10.609688 c -0.417409,0.204686 -0.878513,0.229006 -1.254377,0.06607 -0.04066,-0.01758 -0.07633,-0.03046 -0.07949,-0.02849 -0.004,0.0021 0.06239,0.11265 0.146693,0.24535 l 0.152614,0.241611 -0.388243,0.244573 -0.388238,0.244558 -1.617698,-2.567767 -1.617698,-2.567767 0.408641,-0.257501 0.408649,-0.257495 0.720827,1.14428 c 0.595696,0.945593 0.722885,1.143005 0.729895,1.138573 0.0049,-0.0031 0.01259,-0.03486 0.01678,-0.07036 0.14411,-1.200822 1.701058,-1.825248 2.764419,-1.108701 1.361875,0.917721 1.360358,2.864263 -0.0028,3.532735 z m -0.250087,-0.810902 c 0.957927,-0.92089 -0.385076,-2.670015 -1.505924,-1.961312 -1.183862,0.748628 -0.0624,2.760125 1.207782,2.166295 0.0533,-0.02489 0.255298,-0.163728 0.298141,-0.204984 z m -4.083783,3.521603 c -0.828744,0.420243 -1.644689,0.127604 -1.854118,-0.664999 -0.163265,-0.618013 0.396629,-1.369011 1.573386,-2.110365 l 0.119015,-0.07496 -0.06868,-0.101838 c -0.424638,-0.62661 -1.474736,-0.171067 -1.739256,0.754501 -0.02064,0.07254 -0.02064,0.07254 -0.04922,0.06361 -0.0157,-0.0047 -0.180407,-0.05665 -0.366147,-0.114873 -0.265536,-0.08333 -0.337406,-0.108955 -0.3361,-0.119984 0.03507,-0.297663 0.394194,-0.848634 0.753193,-1.155363 0.752143,-0.642647 1.603271,-0.746511 2.180629,-0.266089 0.240959,0.200501 0.197211,0.138916 0.989697,1.391151 l 0.693926,1.097024 -0.381168,0.24008 -0.381607,0.240479 -0.128432,-0.20449 c -0.145377,-0.229911 -0.145718,-0.23049 -0.145955,-0.133937 -0.0021,0.42237 -0.361168,0.907416 -0.858572,1.159643 z m 0.07324,-0.915064 c 0.421011,-0.332491 0.484505,-0.789657 0.177367,-1.277184 l -0.06752,-0.10755 -0.237466,0.155419 c -0.779822,0.510478 -1.042136,0.888832 -0.863823,1.245907 0.161346,0.323064 0.570034,0.316187 0.991597,-0.01713 z M 27.040838,17.971 l -1.617682,-2.567781 0.408649,-0.257506 0.408629,-0.257494 1.617693,2.567779 1.617677,2.567771 -0.408629,0.257495 -0.408661,0.257502 z"
       id="path42317-9-9-2"
       sodipodi:nodetypes="ssccsccsscscccsssssssssssccsscccccccsscsccscssscsscccsscssccccssccsscssssccccccccc" /><path
       style="fill:#000000;stroke-width:0.00805003"
       d="m 85.772727,153.26167 c -2.085147,1.16757 -4.76747,0.45343 -5.960142,-1.58683 -1.858192,-3.17874 0.676653,-7.04955 4.336378,-6.62181 0.01227,0.002 0.01156,0.0228 -4.83e-4,0.1242 -0.07281,0.57195 -0.04821,1.17255 0.07113,1.74 0.02578,0.12215 0.0374,0.17182 0.06328,0.26944 0.0011,0.006 -0.06602,-0.006 -0.150269,-0.0245 -2.022369,-0.45934 -3.589585,1.7411 -2.486239,3.49079 1.100198,1.74469 3.753339,1.29074 4.220734,-0.72216 l 0.0378,-0.16284 0.06827,0.057 c 0.486419,0.4065 1.062565,0.72662 1.68702,0.93733 l 0.124933,0.0422 -0.02373,0.068 c -0.355083,1.01951 -1.064315,1.87166 -1.988404,2.3891 z m 5.633894,-3.54955 c -3.353247,1.75731 -7.217043,-1.19915 -6.375913,-4.87865 0.732777,-3.20555 4.609631,-4.51103 7.142183,-2.40502 1.269669,1.05583 1.752209,2.63385 1.514612,4.09867 -0.210538,1.29768 -0.986334,2.50658 -2.280882,3.185 z m -0.710113,-2.01617 c 1.422646,-1.03806 1.234312,-3.21281 -0.343868,-3.97091 -1.635288,-0.78552 -3.501924,0.51384 -3.330842,2.31858 0.168301,1.77519 2.233584,2.70387 3.67471,1.65233 z m 9.838862,-10.60969 c -0.4174,0.20469 -0.878512,0.22901 -1.254372,0.0661 -0.0407,-0.0176 -0.0763,-0.0305 -0.0795,-0.0285 -0.004,0.002 0.0624,0.11265 0.14669,0.24535 l 0.15261,0.24161 -0.38824,0.24457 -0.388237,0.24456 -1.617698,-2.56776 -1.617698,-2.56777 0.408641,-0.2575 0.408649,-0.2575 0.720827,1.14428 c 0.595696,0.9456 0.722885,1.14301 0.729895,1.13858 0.0049,-0.003 0.01259,-0.0349 0.01678,-0.0704 0.14411,-1.20083 1.701061,-1.82525 2.764423,-1.10871 1.36187,0.91773 1.36036,2.86427 -0.003,3.53274 z m -0.25008,-0.8109 c 0.95792,-0.92089 -0.385082,-2.67002 -1.505929,-1.96131 -1.183862,0.74862 -0.0624,2.76012 1.207787,2.16629 0.0533,-0.0249 0.255292,-0.16373 0.298142,-0.20498 z m -4.083788,3.5216 c -0.828744,0.42024 -1.644689,0.12761 -1.854118,-0.665 -0.163265,-0.61801 0.396629,-1.36901 1.573386,-2.11036 l 0.119015,-0.075 -0.06868,-0.10184 c -0.424638,-0.62661 -1.474736,-0.17107 -1.739256,0.7545 -0.02064,0.0725 -0.02064,0.0725 -0.04922,0.0636 -0.0157,-0.005 -0.180407,-0.0566 -0.366147,-0.11487 -0.265536,-0.0833 -0.337406,-0.10896 -0.3361,-0.11999 0.03507,-0.29766 0.394194,-0.84863 0.753193,-1.15536 0.752143,-0.64265 1.603271,-0.74651 2.180629,-0.26609 0.240959,0.2005 0.197211,0.13892 0.989697,1.39115 l 0.693926,1.09703 -0.381168,0.24008 -0.381607,0.24048 -0.128432,-0.20449 c -0.145377,-0.22992 -0.145718,-0.23049 -0.145955,-0.13394 -0.0021,0.42237 -0.361168,0.90741 -0.858572,1.15964 z m 0.07324,-0.91506 c 0.421011,-0.33249 0.484505,-0.78966 0.177367,-1.27719 l -0.06752,-0.10755 -0.237466,0.15542 c -0.779822,0.51048 -1.042136,0.88883 -0.863823,1.24591 0.161346,0.32306 0.570034,0.31619 0.991597,-0.0171 z m -4.044933,-0.27711 -1.617682,-2.56778 0.408649,-0.25751 0.408629,-0.25749 1.617693,2.56778 1.617677,2.56777 -0.408629,0.25749 -0.408661,0.25751 z"
       id="path42317-9-9-2-6"
       sodipodi:nodetypes="ssccsccsscscccsssssssssssccsscccccccsscsccscssscsscccsscssccccssccsscssssccccccccc" /></g></svg>
