<?xml version="1.0" encoding="UTF-8" standalone="no"?>
<!-- Created with Inkscape (http://www.inkscape.org/) -->

<svg
   width="67.791351mm"
   height="119.79488mm"
   viewBox="0 0 67.791351 119.79488"
   version="1.1"
   id="svg46475"
   sodipodi:docname="luciole v32 pour CNC.svg"
   inkscape:version="1.2 (dc2aedaf03, 2022-05-15)"
   xmlns:inkscape="http://www.inkscape.org/namespaces/inkscape"
   xmlns:sodipodi="http://sodipodi.sourceforge.net/DTD/sodipodi-0.dtd"
   xmlns="http://www.w3.org/2000/svg"
   xmlns:svg="http://www.w3.org/2000/svg">
  <sodipodi:namedview
     id="namedview46477"
     pagecolor="#ffffff"
     bordercolor="#000000"
     borderopacity="0.25"
     inkscape:showpageshadow="2"
     inkscape:pageopacity="0.0"
     inkscape:pagecheckerboard="0"
     inkscape:deskcolor="#d1d1d1"
     inkscape:document-units="mm"
     showgrid="false"
     inkscape:zoom="1.4142136"
     inkscape:cx="72.478445"
     inkscape:cy="228.04194"
     inkscape:window-width="1920"
     inkscape:window-height="1001"
     inkscape:window-x="-9"
     inkscape:window-y="-9"
     inkscape:window-maximized="1"
     inkscape:current-layer="layer1"
     showguides="true" />
  <defs
     id="defs46472">
    <inkscape:path-effect
       effect="fill_between_many"
       method="originald"
       linkedpaths="#path18516-3-2,0,1"
       id="path-effect53219"
       is_visible="true"
       lpeversion="0"
       join="true"
       close="true"
       autoreverse="true" />
    <inkscape:path-effect
       effect="fill_between_many"
       method="originald"
       linkedpaths="#path16960-6-7,0,1"
       id="path-effect53223"
       is_visible="true"
       lpeversion="0"
       join="true"
       close="true"
       autoreverse="true" />
    <inkscape:path-effect
       effect="fill_between_many"
       method="originald"
       linkedpaths="#path16960-6-7-2,0,1"
       id="path-effect53223-2"
       is_visible="true"
       lpeversion="0"
       join="true"
       close="true"
       autoreverse="true" />
    <inkscape:path-effect
       effect="fill_between_many"
       method="originald"
       linkedpaths="#path18516-3-2-3,0,1"
       id="path-effect53219-3"
       is_visible="true"
       lpeversion="0"
       join="true"
       close="true"
       autoreverse="true" />
    <inkscape:path-effect
       effect="fill_between_many"
       method="originald"
       linkedpaths="#path16960-6-7-8-9,0,1"
       id="path-effect53223-0-3"
       is_visible="true"
       lpeversion="0"
       join="true"
       close="true"
       autoreverse="true" />
  </defs>
  <g
     inkscape:label="Calque 1"
     inkscape:groupmode="layer"
     id="layer1"
     transform="translate(-71.408347,-69.218715)">
    <path
       inkscape:original-d="M 0,0"
       inkscape:path-effect="#path-effect53219"
       d="M 0,0"
       id="path53221"
       class="UnoptimicedTransforms"
       transform="translate(-3.6847814,15.930697)" />
    <path
       id="path14522-7-7-0-8-2"
       style="fill:none;stroke:#ff0000;stroke-width:0.21;stroke-dasharray:none;stroke-opacity:1"
       d="m 87.382712,69.323892 c -0.052,9.53e-4 -0.10198,0.0077 -0.14986,0.02067 -1.53243,0.413714 -3.39337,0.620405 -4.9258,0.930693 -1.53242,0.310274 -0.65669,1.861988 0.65681,1.758549 1.3135,-0.103366 2.13443,-0.258629 3.5574,-0.05168 1.42296,0.206864 8.64714,9.101414 9.960627,11.687142 0.94446,1.859211 2.74616,6.086951 3.521291,8.392826 0.0912,0.271331 0.21215,0.408876 0.17624,0.675496 -0.0151,0.111933 -0.13653,0.366642 -0.212701,0.423555 -0.13366,0.09986 -0.35191,0.262603 -0.73382,0.143965 -0.18381,-0.0571 -0.18001,-0.07122 -0.40092,-0.149806 -0.46418,-0.165125 -1.02946,-0.302214 -1.70672,-0.280913 -1.102487,0.0347 -3.550117,0.675284 -4.651907,2.27583 -0.85455,1.241388 -1.24526,3.413031 -0.47904,5.067911 0.56214,1.21411 1.59545,2.42824 2.40857,3.07052 0.16871,0.13327 0.34034,0.21711 0.47151,0.36217 0.0824,0.0911 0.10274,0.19439 0.12439,0.28232 0.0358,0.14525 0.006,0.29088 -0.0491,0.44781 -0.0506,0.14551 -0.169,0.21696 -0.30549,0.35659 -0.66704,0.68239 -1.7161,1.56516 -2.40095,2.17476 -0.15675,0.13952 -0.22009,0.24956 -0.37099,0.34516 -0.0813,0.0515 -0.24442,0.0932 -0.3306,0.0972 -0.11694,-0.008 -0.17864,0.0237 -0.35051,-0.074 -0.18265,-0.10376 -0.32935,-0.2468 -0.57731,-0.48942 -2.33537,-2.28497 -7.59517,-9.365716 -7.59517,-9.365716 0,0 0.10919,-3.826847 -0.32867,-4.964554 -0.43783,-1.137718 -0.82082,-1.344688 -1.64176,-1.241268 -1.38945,0.175079 -0.82505,3.220119 -0.82062,4.499467 0.006,1.748766 0.40695,3.495932 1.69654,4.498951 1.31469,1.02251 7.88098,9.61911 7.66206,10.23968 -0.21891,0.62057 -7.43258,14.58337 -7.97987,16.34164 -0.54729,1.75829 -7.55613,4.55063 -7.55613,4.55063 0,0 -2.4232,4.31976 -2.53266,5.5609 -0.10948,1.24115 1.99269,1.88505 2.64945,0.64389 0.65675,-1.24112 1.52497,-3.61993 1.52497,-3.61993 l 2.82104,-1.59616 0.48079,-0.26643 0.177,-0.0546 c 0.31703,-0.0327 0.42988,0.0731 0.5912,0.18898 0,0 0.2219,0.25565 0.21451,0.50108 -0.006,0.21091 -0.10696,0.38469 -0.19347,0.61419 -1.96953,5.22463 -6.64924,18.52616 -5.95504,25.24963 0.46598,4.51307 3.23161,2.65196 5.71852,-0.0909 0.0245,-0.0325 0.0633,-0.0727 0.10302,-0.10753 l 0.0666,-0.059 c 0.0702,-0.0512 0.0451,-0.025 0.10353,-0.0671 l 0.0514,-0.0207 c 0.0748,-0.0266 0.15365,-0.0402 0.23306,-0.0403 0.38677,-1.2e-4 0.70034,0.31345 0.70022,0.70022 -2e-5,0.0124 -3.6e-4,0.0248 -10e-4,0.0372 l -0.002,0.045 c -0.004,0.0379 -0.006,0.0431 -0.017,0.0853 -0.0175,0.0708 -0.0459,0.13846 -0.0842,0.2005 -2.41369,5.6864 -4.86562,13.50745 -1.30793,15.78199 2.56295,1.63857 6.94127,-1.31612 9.89166,-4.13823 0.3696,-0.35353 0.75478,-0.84549 1.04348,-1.012 0.11981,-0.0691 0.35802,-0.13328 0.61741,-0.0231 0.39218,0.24828 0.36105,0.33877 0.42877,0.73471 l -0.43347,0.99885 -4.72811,11.15824 c 0,0 1.95154,5.79173 2.82722,5.9986 0.87566,0.20684 2.73631,-0.20653 2.18901,-1.86139 -0.54729,-1.65488 -2.50162,-3.22921 -1.84485,-4.67723 0.42589,-0.93898 1.9037,-4.99991 2.97961,-7.4287 0.0827,-0.18674 0.16117,-0.36474 0.24038,-0.52912 0.0998,-0.20718 0.0896,-0.26718 0.23741,-0.38789 0.24291,-0.1983 0.52917,-0.21713 0.72736,-0.12975 0.10822,0.0477 0.21445,0.0912 0.32694,0.24339 0.0988,0.13366 0.13977,0.31924 0.2217,0.49803 1.50039,3.2738 5.674827,10.62541 11.395848,10.75608 5.18836,0.11845 8.21128,-2.86432 11.18028,-10.54722 0.0831,-0.21509 0.139,-0.48046 0.27821,-0.67288 0.13011,-0.17984 0.32523,-0.2684 0.46481,-0.27533 0.18543,-0.009 0.41241,0.0308 0.56613,0.16198 0.17873,0.15257 0.26035,0.40816 0.40186,0.66893 1.30156,2.39859 3.15527,7.04562 3.15527,7.04562 0.006,0.40521 -0.67714,3.36776 -1.94458,5.80326 -0.7743,1.48791 1.53886,2.08043 2.63343,0.73587 1.0946,-1.34459 2.25206,-5.00888 2.25206,-6.56032 0,-1.06121 -2.5964,-5.98354 -4.44736,-9.45163 -0.1649,-0.30897 -0.29902,-0.53713 -0.4132,-0.83591 -0.0256,-0.0669 -0.007,-0.40197 0.11637,-0.56549 0.19195,-0.25401 0.43679,-0.29057 0.59692,-0.28287 0.24061,0.0116 0.2246,0.0371 0.39884,0.123 0.20279,0.1 0.29368,0.26844 0.47995,0.41894 2.72136,2.19886 6.67219,4.95595 9.0242,3.64193 4.35772,-2.43457 0.52591,-12.15887 -1.98366,-17.89674 -0.17484,-0.39975 -0.27935,-0.54472 -0.38512,-0.92108 -0.0636,-0.22625 0.14157,-0.59117 0.29812,-0.67798 0.17459,-0.0968 0.58409,-0.19208 0.77292,-0.0219 0.28831,0.25978 0.47402,0.54047 0.7383,0.85319 1.76646,2.09016 3.85281,4.27568 5.1142,4.05256 2.99932,-0.53051 2.11719,-3.56589 1.7291,-6.54999 -1.12496,-8.64982 -4.1978,-16.58033 -5.70682,-19.9538 -0.11733,-0.2623 -0.22465,-0.51349 -0.31906,-0.71998 -0.0892,-0.19507 0.0377,-0.55601 0.15067,-0.66445 0.18469,-0.17725 0.40409,-0.2396 0.5111,-0.22485 0.26809,0.037 0.53135,0.12857 0.82936,0.21492 1.34419,0.38952 2.86301,0.91117 2.86301,0.91117 l 1.08934,2.94866 c 0,0 0.18057,1.9956 1.93115,2.20245 1.00136,0.11834 1.03619,-0.0764 1.18804,-1.60714 0.16422,-1.65488 -0.82646,-4.46349 -1.59267,-5.60121 -0.79928,-1.18688 -7.96888,-3.55736 -8.40672,-4.3848 -0.43782,-0.82743 -7.4293,-14.9362 -8.67802,-16.66307 -1.1154,-1.5425 5.85603,-9.10189 6.51278,-10.343037 0.65673,-1.241138 1.53254,-4.44726 1.31362,-5.895248 -0.21893,-1.448007 -2.07975,-2.068554 -2.40812,-0.723986 -0.32838,1.344577 -0.87601,4.860904 -0.98547,5.274613 -0.0949,0.35889 -5.50276,6.633118 -7.07719,8.694718 -0.24049,0.31491 -0.374,0.405 -0.57351,0.42772 -0.11078,0.0126 -0.34739,0.0444 -0.71492,-0.3132 -0.57797,-0.56236 -1.34558,-1.43079 -1.9471,-2.13221 -0.14425,-0.1682 -0.30767,-0.29842 -0.37437,-0.46099 -0.10325,-0.25163 -0.0291,-0.44275 -0.0291,-0.44275 0,0 0.1042,-0.32972 0.30468,-0.42576 0.28386,-0.13598 0.24454,-0.10961 0.39758,-0.17821 0.52182,-0.23394 1.14127,-0.6159 1.72808,-1.23777 1.3141,-1.39261 2.02928,-3.78318 1.26969,-5.809986 -0.62114,-1.657457 -2.59272,-3.761672 -5.0431,-3.803902 -0.58696,-0.01011 -1.16924,0.120541 -1.68067,0.296344 -0.16734,0.05753 -0.3144,0.173373 -0.47696,0.183736 -0.36438,0.02323 -0.53885,-0.204129 -0.53885,-0.204129 0,0 -0.23138,-0.143404 -0.23124,-0.576454 6e-5,-0.161747 0.0765,-0.277314 0.13264,-0.450574 0.93008,-2.870531 2.84379,-8.165116 4.72933,-9.649839 2.62699,-2.068572 9.46827,-8.118884 10.78177,-8.118884 1.31349,0 2.07999,-2.585962 0.32866,-2.482536 -1.75136,0.103365 -8.20949,3.51651 -10.78177,6.412528 -2.29749,2.586645 -5.08992,5.171623 -6.02031,7.498768 -0.60252,1.507066 -1.17674,5.196262 -1.74937,6.901758 -0.0222,0.06611 -0.0445,0.129193 -0.0666,0.18915 -0.16929,0.460145 -0.33267,0.452657 -0.49972,0.54506 -0.19641,0.05825 -0.41384,0.0066 -0.59647,-0.07244 -0.13404,-0.05799 -0.26666,-0.116538 -0.40006,-0.170729 -0.53364,-0.216781 -1.07979,-0.36385 -1.77948,-0.126752 -0.27791,0.09417 -0.60643,0.234224 -0.92655,0.1242 l -0.25167,-0.198438 c -0.16493,-0.286912 -0.13118,-0.283345 -0.24108,-0.687191 -0.92328,-3.392698 -3.231891,-9.571556 -6.459798,-13.176203 -3.49925,-3.907671 -7.0498,-9.513723 -8.66148,-9.484175 z"
       sodipodi:nodetypes="scccccssssscssssssssscsscccccsscsscccccsssccccccsccccsssccccssssssssscssssscssssssssssssssscssssssccscssscsscssssscsssccsscsssscsssscsssccsss" />
    <path
       inkscape:original-d="M 0,0"
       inkscape:path-effect="#path-effect53223-0-3"
       d="M 0,0"
       id="path53225-3-8"
       class="UnoptimicedTransforms"
       transform="translate(-1.272778,21.523046)" />
    <path
       style="fill:#000000;stroke-width:0.00878956"
       d="m 94.376691,123.30679 c -2.607172,-0.10602 -4.694059,-2.3038 -4.637086,-4.88357 0.08877,-4.01929 4.659721,-6.17083 7.819551,-3.68065 0.01037,0.009 -0.0023,0.0279 -0.07145,0.11526 -0.394713,0.49041 -0.715204,1.06317 -0.928603,1.65926 -0.04585,0.12837 -0.06345,0.18121 -0.09518,0.28682 -0.0024,0.007 -0.05819,-0.043 -0.125802,-0.10864 -1.618651,-1.58349 -4.334532,-0.43257 -4.308477,1.82584 0.02598,2.25194 2.753535,3.34648 4.339109,1.74124 l 0.128262,-0.12986 0.03091,0.092 c 0.220081,0.65622 0.573012,1.2834 1.033433,1.83641 l 0.0921,0.11066 -0.06095,0.0497 c -0.913167,0.74537 -2.060095,1.13259 -3.215533,1.08561 z m 7.270109,-0.0809 c -4.123949,-0.28238 -6.027933,-5.24152 -3.141895,-8.18341 2.514285,-2.56296 6.866995,-1.56092 8.018825,1.84602 0.57745,1.70804 0.12416,3.45184 -0.9343,4.6786 -0.93774,1.08678 -2.35055,1.7678 -3.94263,1.65879 z m 0.49209,-2.28148 c 1.91685,-0.15229 2.98498,-2.28298 1.95032,-3.89044 -1.0721,-1.66561 -3.55135,-1.52409 -4.423985,0.25255 -0.858335,1.74754 0.531925,3.79216 2.473665,3.63789 z m 15.21803,-4.24448 c -0.50531,-0.0483 -0.94814,-0.28922 -1.20463,-0.65568 -0.0277,-0.0396 -0.0536,-0.072 -0.0577,-0.072 -0.004,-3.3e-4 -0.007,0.14046 -0.004,0.3121 l 0.003,0.312 -0.50097,0.005 -0.50097,0.005 -0.0368,-3.31346 -0.0368,-3.31345 0.52735,-0.005 0.52735,-0.005 0.0164,1.47654 c 0.0135,1.22019 0.019,1.47653 0.0281,1.47641 0.007,-5e-5 0.0317,-0.0252 0.0558,-0.0558 0.82057,-1.03465 2.62587,-0.72539 3.20539,0.54909 0.74219,1.63228 -0.37208,3.44214 -2.0223,3.28465 z m 0.23095,-0.89731 c 1.41758,-0.30897 1.16827,-2.70386 -0.27955,-2.68541 -1.52925,0.0195 -1.63603,2.53188 -0.11497,2.70565 0.0638,0.008 0.33109,-0.007 0.39452,-0.0202 z m -5.81217,0.94118 c -1.01117,-0.0829 -1.60289,-0.82158 -1.34456,-1.67861 0.20145,-0.66824 1.15162,-1.04674 2.67011,-1.06361 l 0.15357,-0.002 -0.005,-0.13401 c -0.0368,-0.82566 -1.27404,-1.00225 -2.04925,-0.29248 -0.0607,0.0557 -0.0607,0.0557 -0.0821,0.031 -0.0119,-0.0133 -0.13544,-0.15583 -0.27494,-0.31618 -0.19936,-0.22933 -0.25157,-0.29426 -0.24405,-0.30377 0.20279,-0.25685 0.85186,-0.56406 1.36118,-0.64415 1.06707,-0.16779 1.91819,0.22218 2.18061,0.99916 0.10951,0.32427 0.10405,0.24197 0.1253,1.85991 l 0.0183,1.41721 -0.49182,0.005 -0.49246,0.005 -0.002,-0.26365 c -0.003,-0.29698 -0.003,-0.29772 -0.0592,-0.20803 -0.24345,0.39168 -0.85474,0.63762 -1.46164,0.58787 z m 0.59128,-0.80934 c 0.58173,-0.0686 0.90216,-0.45757 0.89517,-1.08667 l -0.001,-0.13865 -0.30975,0.009 c -1.01726,0.029 -1.47758,0.23102 -1.51585,0.66513 -0.0346,0.39275 0.34949,0.62002 0.9322,0.55097 z m -3.60428,-2.5703 -0.0368,-3.31346 0.52735,-0.005 0.52733,-0.005 0.0368,3.31347 0.0368,3.31344 -0.52733,0.005 -0.52736,0.005 z"
       id="path42317-9-9-2"
       sodipodi:nodetypes="ssccsccsscscccsssssssssssccsscccccccsscsccscssscsscccsscssccccssccsscssssccccccccc" />
    <path
       id="rect8680"
       style="fill:#000000;fill-opacity:1;stroke:none;stroke-width:1.67176"
       d="M 121.22805 124.14508 C 120.14535 124.16279 119.25701 124.72102 118.61528 125.38841 C 117.8215 126.21396 117.21866 127.19016 116.51774 127.85131 L 116.5074 127.85958 L 116.49965 127.86733 C 115.64878 128.72354 114.48091 129.4069 113.29623 129.68221 C 112.30938 129.91154 111.33031 129.87013 110.44111 129.4662 L 110.44111 127.68491 L 100.5058 127.68491 L 100.5058 131.73325 L 110.44111 131.73325 L 110.44111 131.06662 C 111.49065 131.391 112.59745 131.3845 113.63626 131.1431 C 115.13141 130.79564 116.5121 129.9821 117.56005 128.92825 C 118.4519 128.08173 119.07233 127.07553 119.69481 126.42814 C 120.32122 125.77667 120.7672 125.47715 121.69882 125.68607 L 121.72052 125.69175 L 121.74171 125.69589 C 124.57108 126.15612 126.71572 129.31548 126.30422 132.14304 L 126.30422 132.15131 L 126.30215 132.15699 C 126.04182 134.19913 126.08216 136.35893 126.90367 138.38555 C 127.61333 140.39857 129.03065 141.89112 130.25747 143.29998 C 130.72773 144.06572 130.87178 145.18787 130.62075 146.12772 C 130.36813 147.07356 129.80392 147.77957 128.86065 148.00099 C 128.00228 148.18195 127.36601 147.79519 126.59309 147.10647 C 125.81761 146.41546 125.0734 145.454 124.03253 144.89523 L 124.01496 144.88541 L 123.99739 144.87766 C 123.36107 144.57792 122.72946 144.482 122.17166 144.67251 C 121.61385 144.86303 121.23419 145.30879 121.011 145.77011 C 120.56462 146.69278 120.54069 147.79582 120.59139 148.74099 L 120.59346 148.75856 L 120.59553 148.77613 C 120.91788 151.99592 122.36724 154.93043 124.25008 157.41953 C 124.86798 158.47402 125.40997 159.70195 125.61279 160.88702 C 125.81523 162.06988 125.69159 163.17367 125.04073 164.15866 C 124.51317 164.78735 123.79647 164.95853 122.96076 164.82063 C 122.11245 164.68066 121.21841 164.16782 120.70095 163.56283 L 120.68338 163.54164 L 120.66374 163.522 C 119.3945 162.24229 119.2113 160.2944 119.17132 158.18434 L 119.17132 158.18021 C 119.15262 157.0267 118.9424 155.73092 118.39049 154.58043 C 117.838 153.42874 116.89062 152.40241 115.49196 152.02193 L 115.44907 152.01211 L 115.40566 152.00384 C 114.11899 151.81017 112.95275 152.12816 111.89631 152.38108 C 111.36194 152.50901 110.85809 152.62042 110.37496 152.67409 L 110.37496 151.39819 L 100.43965 151.39819 L 100.43965 155.44653 L 104.38256 155.44653 L 104.38256 160.14391 L 102.41834 160.14391 L 102.41834 162.57581 L 108.12445 162.57581 L 108.12445 160.14391 L 106.16023 160.14391 L 106.16023 155.44653 L 110.37496 155.44653 L 110.37496 154.18562 C 111.03255 154.12836 111.65719 153.9808 112.24565 153.83991 C 113.30426 153.58648 114.25096 153.37039 115.14211 153.49419 C 116.03221 153.75407 116.62449 154.36512 117.03864 155.22845 C 117.46102 156.1089 117.65602 157.22347 117.67167 158.20708 L 117.67167 158.20915 C 117.71237 160.36795 117.85841 162.79896 119.5775 164.55295 C 120.35496 165.45301 121.49466 166.09751 122.71633 166.29909 C 123.94595 166.50198 125.33048 166.19468 126.23187 165.08418 L 126.25358 165.05886 L 126.27115 165.03147 C 127.19172 163.66601 127.34098 162.09403 127.09125 160.63484 C 126.84151 159.17564 126.21338 157.79428 125.52701 156.62888 L 125.50375 156.59168 L 125.47791 156.55654 C 123.70241 154.22049 122.3833 151.51572 122.09156 148.64074 C 122.05056 147.83018 122.14368 146.87675 122.36286 146.42382 C 122.47339 146.19536 122.5639 146.12347 122.65586 146.09206 C 122.74556 146.06146 122.94928 146.05118 123.34161 146.23055 C 123.95278 146.56585 124.70234 147.43119 125.59522 148.22681 C 126.49508 149.02865 127.70693 149.78464 129.18518 149.46705 L 129.19138 149.46498 L 129.19707 149.46291 C 130.73576 149.10483 131.71041 147.86113 132.07028 146.51374 C 132.43016 145.16635 132.2623 143.66628 131.52147 142.48246 L 131.49047 142.43182 L 131.45119 142.38841 C 130.17716 140.92018 128.89188 139.5373 128.3103 137.87499 L 128.30255 137.85742 L 128.29635 137.83985 C 127.60439 136.14472 127.54877 134.25346 127.78888 132.35905 L 127.79044 132.34561 C 128.31725 128.6732 125.73171 124.84643 122.00784 124.22466 L 122.00733 124.22466 C 121.73757 124.16594 121.47774 124.14099 121.22805 124.14508 z " />
    <path
       id="path8799"
       style="fill:#000000;fill-opacity:1;stroke:none;stroke-width:1.47414;stroke-linejoin:miter;stroke-dasharray:none;stroke-opacity:1"
       d="M 105.48844 -133.22566 A 8.5 8.5 0 0 1 96.995416 -141.54143 C 95.18391 -141.58624 93.283496 -141.41672 91.359584 -141.40294 L 91.359584 -141.40242 C 89.097147 -141.38612 86.803737 -141.58632 84.589971 -142.60958 L 84.5662 -142.6194 L 84.545013 -142.63129 C 82.561248 -143.71185 81.0946 -145.26667 79.546868 -146.72458 L 79.539117 -146.73491 L 79.529298 -146.74473 C 78.194766 -148.09124 77.101939 -150.09093 77.611069 -152.20796 L 77.615203 -152.22553 L 77.619337 -152.24104 C 77.827643 -152.95907 78.397033 -153.50272 79.017702 -153.6394 C 79.638371 -153.77608 80.221392 -153.62643 80.769533 -153.41668 C 81.863289 -152.99815 82.88812 -152.24604 83.398313 -151.88344 C 84.699804 -150.97657 86.330999 -151.38241 86.974322 -152.67254 L 86.98259 -152.69011 L 86.992409 -152.70768 C 87.93558 -154.37774 87.312592 -156.59558 86.044663 -158.08668 L 86.019341 -158.11613 L 85.998154 -158.14714 C 85.232211 -159.25699 84.175065 -160.36848 83.275323 -161.63375 C 82.381692 -162.89042 81.641333 -164.34163 81.626845 -166.08877 C 81.537955 -167.49909 82.452091 -168.59538 83.552825 -169.06533 C 84.640931 -169.52989 85.945053 -169.51243 87.011529 -168.88912 C 88.110049 -168.435 88.86047 -167.5853 89.288909 -166.63551 C 89.72258 -165.67412 89.874251 -164.6172 89.885772 -163.63621 C 89.953562 -162.667 90.050289 -161.63916 90.328122 -160.78005 C 90.607519 -159.9161 91.031135 -159.25323 91.796767 -158.83082 L 91.826222 -158.81325 L 91.853611 -158.79568 C 92.508006 -158.35308 93.340078 -158.08776 94.111354 -158.09236 C 94.882631 -158.09736 95.575091 -158.34421 96.105548 -158.91453 L 96.123118 -158.93417 L 96.142755 -158.95381 C 97.299971 -160.03272 97.563697 -161.93649 96.900331 -163.38919 L 96.869325 -163.45741 L 96.851755 -163.53182 C 96.613046 -164.56043 96.340988 -165.74717 96.339642 -166.96159 C 96.338342 -168.176 96.632283 -169.45602 97.550937 -170.49264 L 97.586077 -170.53398 L 97.628969 -170.56912 C 98.534685 -171.33078 99.631541 -171.44308 100.43552 -171.67654 C 100.8375 -171.79327 101.16431 -171.92661 101.39256 -172.09822 C 101.6208 -172.26982 101.77525 -172.46249 101.88452 -172.84805 L 101.89641 -172.89146 L 101.91398 -172.93435 C 102.21918 -173.66315 102.29003 -174.53904 102.37287 -175.48355 A 1.8851562 1.8851562 0 0 1 101.5047 -177.0695 A 1.8851562 1.8851562 0 0 1 103.38986 -178.95465 A 1.8851562 1.8851562 0 0 1 105.27501 -177.0695 A 1.8851562 1.8851562 0 0 1 103.85856 -175.24377 C 103.78497 -174.3536 103.70151 -173.3802 103.30873 -172.41087 C 103.11494 -171.75811 102.74235 -171.23734 102.29277 -170.89933 C 101.8345 -170.55478 101.33054 -170.3738 100.85358 -170.23529 C 99.918534 -169.96377 99.098985 -169.80191 98.638726 -169.43637 C 98.05138 -168.74302 97.838745 -167.92314 97.839809 -166.96365 C 97.840888 -165.99668 98.067711 -164.93145 98.299729 -163.9287 C 99.172801 -161.92887 98.83504 -159.43838 97.183518 -157.87945 C 96.348275 -156.99268 95.218818 -156.59927 94.119105 -156.59271 C 93.020872 -156.58571 91.938472 -156.94363 91.03919 -157.54562 C 89.903704 -158.18864 89.249562 -159.23913 88.900303 -160.3191 C 88.546827 -161.41211 88.457729 -162.55854 88.388706 -163.54939 L 88.386639 -163.57316 L 88.386639 -163.59435 C 88.379039 -164.43459 88.239074 -165.31458 87.921551 -166.01849 C 87.604028 -166.72239 87.146358 -167.24313 86.404331 -167.53364 L 86.343869 -167.55742 L 86.287025 -167.59256 C 85.707131 -167.94477 84.811894 -167.97283 84.140386 -167.68609 C 83.468879 -167.39939 83.066281 -166.94526 83.11926 -166.17662 L 83.12081 -166.15078 L 83.12081 -166.12546 C 83.12421 -164.7813 83.684188 -163.64685 84.497987 -162.50243 C 85.299553 -161.37522 86.337167 -160.27678 87.191363 -159.05147 C 88.767016 -157.19425 89.631992 -154.36232 88.304473 -151.98886 C 87.249386 -149.89898 84.522981 -149.26992 82.541001 -150.65095 L 82.538934 -150.65302 L 82.535316 -150.65509 C 82.019504 -151.02157 81.041354 -151.70659 80.232098 -152.01625 C 79.827469 -152.17108 79.484536 -152.20627 79.339646 -152.17437 C 79.199676 -152.14358 79.161596 -152.13961 79.070412 -151.83486 C 78.744308 -150.43182 79.503061 -148.90349 80.591766 -147.80358 C 80.592766 -147.80258 80.592761 -147.80045 80.593833 -147.79945 C 82.164963 -146.31843 83.53774 -144.89895 85.240061 -143.96557 C 88.790659 -142.33501 92.902143 -143.18357 97.093084 -143.04315 A 8.5 8.5 0 0 1 105.48844 -150.22566 A 8.5 8.5 0 0 1 113.98869 -141.72592 A 8.5 8.5 0 0 1 105.48844 -133.22566 z "
       transform="scale(1,-1)" />
    <path
       id="path8799-4"
       style="stroke-width:1.47414"
       d="M 102.51187 -164.30645 L 102.51187 -166.73886 L 104.51899 -166.73886 C 104.52919 -167.43218 104.80285 -168.12058 105.38302 -168.59559 C 105.94488 -169.08706 106.55663 -169.34712 107.06043 -169.59553 C 107.56967 -169.84663 107.9593 -170.07541 108.23246 -170.41977 L 108.23452 -170.42184 L 108.23659 -170.42391 C 108.57157 -170.83971 108.68918 -171.52156 108.5606 -172.14473 C 108.32034 -173.18902 108.26049 -174.04965 107.91981 -175.15437 L 107.91413 -175.174 L 107.90793 -175.19364 C 107.90663 -175.1988 107.90467 -175.20443 107.90328 -175.20966 A 1.8851562 1.8851562 0 0 1 106.28632 -177.07518 A 1.8851562 1.8851562 0 0 1 108.17148 -178.96034 A 1.8851562 1.8851562 0 0 1 110.05663 -177.07518 A 1.8851562 1.8851562 0 0 1 109.37916 -175.62927 C 109.38294 -175.61552 109.38688 -175.60191 109.39052 -175.58793 C 109.77671 -174.32671 109.85045 -173.37859 110.06025 -172.47288 L 110.06232 -172.46254 L 110.06439 -172.45479 C 110.26992 -171.45872 110.12986 -170.3308 109.43135 -169.46273 C 108.92786 -168.82991 108.29045 -168.48978 107.73998 -168.21836 C 107.18839 -167.94638 106.71626 -167.72854 106.38296 -167.43339 L 106.369 -167.42151 L 106.35712 -167.41169 C 106.19751 -167.28253 106.08345 -167.01721 106.06411 -166.73886 L 108.21799 -166.73886 L 108.21799 -164.30645 L 102.51187 -164.30645 z "
       transform="scale(1,-1)" />
  </g>
</svg>
